<svg width="113" height="146" viewBox="0 0 113 146" fill="none" xmlns="http://www.w3.org/2000/svg">
<path d="M77.3814 2.62873L93.2509 12.1845L49.1575 136.671L29.4371 143.746L20.6254 133.728L18.181 125.645L47.1197 54.5894L54.1462 48.0769L51.3119 41.3347L64.3322 8.09206L77.3814 2.62873Z" fill="white"/>
<mask id="mask0_48_1062" style="mask-type:alpha" maskUnits="userSpaceOnUse" x="18" y="2" width="76" height="142">
<path d="M77.3814 2.62873L93.2509 12.1845L49.1575 136.671L29.4371 143.746L20.6254 133.728L18.181 125.645L47.1197 54.5894L54.1462 48.0769L51.3119 41.3347L64.3322 8.09206L77.3814 2.62873Z" fill="white"/>
</mask>
<g mask="url(#mask0_48_1062)">
<path d="M44.8425 67.1984L47.0411 60.79L53.217 59.8635L55.3161 53.673L49.2058 54.5889L51.326 48.5295L45.2052 49.3798L42.9644 55.5259L40.6791 61.8137L34.2409 62.7823L31.7905 69.2985L25.111 70.4405L22.5061 77.2506L29.3061 76.0219L35.9856 74.8799L38.3493 68.2431L44.8425 67.1984Z" fill="#C5E9DA"/>
<path d="M51.1284 66.1204L57.2937 65.1284L59.3166 58.8828L53.2169 59.8643L51.1284 66.1204Z" fill="#36B37E"/>
<path d="M42.5231 73.6949L48.9402 72.5951L51.1282 66.1211L44.8423 67.1998L42.5231 73.6949Z" fill="#36B37E"/>
<path d="M46.7077 79.21L53.1142 78.0446L55.2262 71.5156L48.9403 72.5943L46.7077 79.21Z" fill="#172B4D"/>
<path d="M40.1806 80.4628L42.5232 73.6948L35.9855 74.8813L33.5117 81.6704L31.004 88.6667L37.783 87.3068L44.4413 86.0336L46.7078 79.2107L40.1806 80.4628Z" fill="#172B4D"/>
<path d="M57.3155 47.7021L55.3159 53.6748L61.295 52.78L59.3165 58.8839L65.2956 57.9891L67.219 51.9614L69.0324 46.0859L63.2395 46.8834L65.129 41.063L66.9846 35.4498L61.2362 36.1057L59.3256 41.795L53.4015 42.6136L51.3258 48.5313L57.3155 47.7021Z" fill="#36B37E"/>
<path d="M55.3566 36.7807L49.422 37.5338L47.3358 43.3859L53.4016 42.6117L55.3566 36.7807Z" fill="#172B4D"/>
<path d="M76.4079 39.6518L70.8013 40.3521L69.0324 46.0859L74.6941 45.3094L76.4079 39.6518Z" fill="#36B37E"/>
<path d="M57.2935 65.1284L55.2261 71.5157L61.3808 70.4581L67.3938 69.356L69.2856 63.1316L71.1329 57.0488L65.2955 57.9881L63.3932 64.147L57.2935 65.1284Z" fill="#36B37E"/>
<path d="M57.2988 83.5605L59.3896 76.9004L53.1142 78.0447L50.9028 84.7915L57.2988 83.5605Z" fill="#36B37E"/>
<path d="M42.0647 93.0097L48.6469 91.6815L50.9028 84.793L44.4412 86.0345L42.0647 93.0097Z" fill="#36B37E"/>
<path d="M47.3359 43.3881L41.2045 44.1729L38.9426 50.1878L45.2051 49.3819L47.3359 43.3881Z" fill="#36B37E"/>
</g>
<path d="M77.3814 2.62873L29.4371 143.746L49.1575 136.671L93.2509 12.1845L77.3814 2.62873Z" fill="#C5E9DA"/>
<path d="M80.8311 20.3047L89.7878 22.0254L87.6466 27.9537L80.8311 20.3047Z" fill="#172B4D"/>
<path d="M77.3814 2.62873L93.2509 12.1845L49.1575 136.671L29.4371 143.746L20.6254 133.728L18.181 125.645L47.1197 54.5894L54.1462 48.0769L51.3119 41.3347L64.3322 8.09206L77.3814 2.62873Z" stroke="#36B37E" stroke-width="1.57158" stroke-miterlimit="10" stroke-linejoin="round"/>
<path d="M60.2902 52.8072L66.4342 57.5368L58.2356 58.856L60.2902 52.8072Z" fill="white"/>
<path d="M77.2471 57.4111L66.4341 57.5364L60.2902 52.8068L54.1463 48.0771" stroke="#36B37E" stroke-width="1.57158" stroke-miterlimit="10" stroke-linejoin="round"/>
<path d="M66.4341 57.5352L58.2356 58.8543L49.9832 83.2569" stroke="#36B37E" stroke-width="1.57158" stroke-miterlimit="10" stroke-linejoin="round"/>
<path d="M87.6466 27.9531L74.005 12.5898L61.1851 16.1325" stroke="#36B37E" stroke-width="1.57158" stroke-miterlimit="10" stroke-linejoin="round"/>
<path d="M64.981 15.0515L62.2822 13.333" stroke="#36B37E" stroke-width="1.57158" stroke-miterlimit="10" stroke-linejoin="round"/>
<path d="M47.9285 89.3059L37.285 78.7747L18.181 125.644L20.6254 133.727L29.4371 143.745L47.9285 89.3059Z" fill="white" stroke="#36B37E" stroke-width="1.57158" stroke-miterlimit="10" stroke-linejoin="round"/>
<path d="M64.0915 95.2506L46.6958 92.9368L45.2998 86.7704L48.5679 88.2628L64.0915 95.2506Z" fill="#172B4D"/>
<path d="M29.437 143.747L82.7603 135.167L112.275 130.418L95.7718 113.161L18.1809 125.645L20.6254 133.728L29.437 143.747Z" fill="#172B4D"/>
</svg>
